<svg xmlns="http://www.w3.org/2000/svg" viewBox="0 0 147 77" width="147" height="77"><path fill="#00A994" d="M78.6 27h-.5v-9.9h.4c1.3 0 2.1 1 2.1 4.7 0 3.9-1.1 5.2-2 5.2m.2-11.8h-2.9c-.4 0-.6.1-.6.5v12.7c0 .4.1.5.6.5h2.9c2.7 0 4.6-2.2 4.6-7.2 0-4.5-1.8-6.5-4.6-6.5zm11.3 11.7h-2.2v-4.2h2c.4 0 .5-.1.5-.5v-.8c0-.4-.1-.5-.5-.5h-2v-3.6H90c.4 0 .5-.1.5-.5v-1c0-.4-.1-.5-.5-.5h-4.3c-.4 0-.6.1-.6.5v12.7c0 .4.1.5.6.5h4.4c.4 0 .5-.1.5-.5v-1c0-.5-.1-.6-.5-.6m9.6-8.7h.1l.1 10.2c0 .4.1.5.6.5h1.4c.4 0 .5-.1.5-.5l-.2-12.7c0-.4-.1-.5-.5-.5h-3c-.4 0-.6.1-.6.5 0 0-.7 7.9-.7 8.9h-.1c-.1-1-.6-8.9-.6-8.9 0-.4-.2-.5-.6-.5h-3c-.4 0-.6.1-.6.5l-.2 12.7c0 .4.1.5.6.5h1c.4 0 .5-.1.5-.5l.1-10.2h.1l1.1 10.2c0 .4.2.5.6.5H98c.4 0 .6-.1.6-.5 0-.1 1.1-9.3 1.1-10.2m7.4 5.7s.7-4.8.8-6h.1c.1 1.2.8 6 .8 6h-1.7zm2.9-8.2c-.1-.4-.1-.6-.6-.6h-2.7c-.4 0-.6.1-.6.5L104 28.4c-.1.4.1.5.4.5h1.4c.4 0 .6-.1.6-.5l.4-2.5h2.3l.4 2.5c.1.5.2.5.6.5h1.7c.4 0 .5-.1.4-.5L110 15.7zm10.9-.6h-1.1c-.4 0-.6.1-.6.5V24h-.1c-.2-1.7-1.5-8.4-1.5-8.4-.1-.4-.2-.5-.7-.5h-2.6c-.4 0-.6.1-.6.5v12.8c0 .4.1.5.6.5h1.1c.4 0 .5-.1.5-.5V19h.1c.3 1.7 1.9 9.4 1.9 9.4.1.5.2.5.7.5h2.2c.4 0 .5-.1.5-.5V15.7c.1-.4 0-.6-.4-.6m5.3 2h.4c1.3 0 2.1 1 2.1 4.7 0 3.9-1.1 5.2-2 5.2h-.5v-9.9zM124 28.9h2.9c2.7 0 4.6-2.2 4.6-7.2 0-4.5-1.8-6.6-4.6-6.6H124c-.4 0-.6.1-.6.5v12.7c0 .5.1.6.6.6zm9.7 0h4.4c.4 0 .5-.1.5-.5v-1c0-.4-.1-.5-.5-.5h-2.2v-4.2h2c.4 0 .5-.1.5-.5v-.8c0-.4-.1-.5-.5-.5h-2v-3.5h2.1c.4 0 .5-.1.5-.5v-1c0-.4-.1-.5-.5-.5h-4.3c-.4 0-.6.1-.6.5v12.7c.1.2.2.3.6.3zm13-.5v-1c0-.4-.1-.5-.5-.5h-2.9l3.4-9.3c.1-.3.1-.4.1-.7v-1.2c0-.4-.1-.5-.5-.5h-5.2c-.4 0-.6.1-.6.5v1c0 .4.1.5.6.5h2.9l-3.3 9.3c-.1.3-.1.4-.1.7v1.1c0 .4.1.5.6.5h5.3c.1.1.2 0 .2-.4m-64.3 4.4h-1.1c-.4 0-.6.1-.6.5v8.4h-.1c-.2-1.7-1.5-8.4-1.5-8.4-.1-.4-.2-.5-.7-.5h-2.6c-.4 0-.6.1-.6.5V46c0 .4.1.5.6.5H77c.4 0 .5-.1.5-.5v-9.4h.1c.3 1.7 1.9 9.4 1.9 9.4.1.5.2.5.7.5h2.2c.4 0 .5-.1.5-.5V33.3c0-.4-.1-.5-.5-.5m6.3 11.9c-1 0-1.3-1.9-1.3-5s.3-5 1.4-5c1.1 0 1.3 1.9 1.3 5s-.3 5-1.4 5m4.2-5c0-4.4-1.1-7-4.1-7-2.9 0-4.1 2.6-4.1 7s1.1 7 4.1 7c2.9 0 4.1-2.6 4.1-7m8.4-6.9h-1.4c-.4 0-.6.1-.6.5v8.8c0 1.9-.3 2.6-1 2.6-.8 0-1.1-.8-1.1-2.6v-8.8c0-.4-.1-.5-.5-.5H95c-.4 0-.6.1-.6.5v8.4c0 3.4 1.3 5 3.7 5 2.4 0 3.6-1.5 3.6-5v-8.4c.1-.4 0-.5-.4-.5m2.4 13.7c.5.1 1.1.2 1.7.2 2.5 0 3.7-1.9 3.7-4.1 0-3.6-3.2-4.3-3.2-6.5 0-.8.4-1.2 1.2-1.2.3 0 .6.1.9.2.3.1.4 0 .5-.3l.2-1.3c.1-.4 0-.5-.4-.6-.4-.1-1-.2-1.6-.2-2.4 0-3.5 1.8-3.5 3.9 0 3.5 3.2 4.1 3.2 6.5 0 1-.5 1.5-1.4 1.5-.4 0-.8-.1-1.1-.2-.3-.1-.4 0-.5.3l-.2 1.3c.2.3.2.5.5.5zM80.3 62h-2.2V51c0-.4-.1-.5-.5-.5h-1.7c-.4 0-.6.1-.6.5v12.7c0 .4.1.5.6.5h4.4c.4 0 .5-.1.5-.5v-1.1c0-.5-.1-.6-.5-.6zm4.9-2.8s.7-4.8.8-6h.1c.1 1.2.8 6 .8 6h-1.7zm3-8.2c-.1-.5-.1-.5-.6-.5h-2.7c-.5 0-.6.1-.6.5l-2.2 12.7c-.1.4.1.5.5.5H84c.4 0 .6-.1.6-.5l.4-2.5h2.3l.4 2.5c.1.5.2.5.6.5H90c.4 0 .5-.2.5-.5L88.2 51zm15-.6h-1.4c-.5 0-.6.1-.6.5 0 0-1.2 9.3-1.3 10.4h-.1c-.1-1.2-1.3-10.5-1.3-10.5-.1-.4-.2-.5-.6-.5h-1.7c-.4 0-.5.1-.5.5l2 12.7c.1.4.2.5.6.5h2.7c.4 0 .6-.1.6-.5l1.9-12.7c.2-.3.1-.4-.3-.4zm4.2 0h-1.7c-.4 0-.6.1-.6.5v12.7c0 .4.1.5.6.5h1.7c.4 0 .5-.1.5-.5V50.9c0-.4-.1-.5-.5-.5m7.5 11.6h-2.2V51c0-.4-.1-.5-.5-.5h-1.7c-.4 0-.6.1-.6.5v12.7c0 .4.1.5.6.5h4.4c.4 0 .5-.1.5-.5v-1.1c0-.5-.1-.6-.5-.6zm7.1 0h-2.2V51c0-.4-.1-.5-.5-.5h-1.7c-.4 0-.6.1-.6.5v12.7c0 .4.1.5.6.5h4.4c.4 0 .5-.1.5-.5v-1.1c.1-.5 0-.6-.5-.6zm7.3.1H127v-4.2h2c.4 0 .5-.1.5-.5v-.8c0-.4-.1-.5-.5-.5h-2v-3.5h2.1c.4 0 .5-.1.5-.5v-1c0-.4-.1-.5-.5-.5h-4.3c-.4 0-.6.1-.6.5v12.7c0 .4.1.5.6.5h4.4c.4 0 .5-.1.5-.5v-1c.1-.6 0-.7-.4-.7M36.8 1.9h4.3L39.9 9h3.2l1.3-7.1h4.3L49 .6H37l-.2 1.3zm20 2.6c-1.1.5-2.5.3-3.7.3l.6-3H56c.6 0 1.2.2 1.4.8.3.6.1 1.5-.6 1.9m3.7-2.6c-1-1.4-3-1.3-4.8-1.3h-5L49.2 9h3.1l.6-3h3.4c1.2 0 2.5-.1 3.5-.9 1-.7 1.4-2.2.7-3.2zM28.7 6.6l2.4-2.9h.1l1.5 2.9h-4zM32.2.4l-7.7 8.7h2.1l1.1-1.3h5.6l.6 1.3h3.6L32.7.4h-.5zm-11.3 4c-1.1.5-2.6.4-3.8.4l.6-2.9h2.5c.6 0 1.2.1 1.5.7.1.5-.2 1.5-.8 1.8m2.6.6c1.9-.9 1.8-3.3-.1-4.1-.9-.4-2-.3-3-.3h-5.6L13.3 9h3l.7-3.7h.2L20.3 9h3.8l-3.2-3.4c.8 0 1.8-.2 2.6-.6"/><path fill="#00A994" d="M61.6 29.1C53.3 10.5 27.2 7.5 14.3 23c2.6.7 5 2 7.1 3.8 8.4-8.5 22.9-8.2 30.3 1.5 7 9.1 4.1 23.5-5.9 29.3-1 2.8-1.7 5.5-1.7 8.4 15.4-4.7 24-22 17.5-36.9zM22 53.6c-5-4.9-7.1-12.4-5.1-19.2-1.9-1.9-4.7-3.3-7.4-3.5-3.2 8.2-1.6 18 3.7 24.9 5.3 7 13.1 10.4 21.7 10.7.2-2.4.6-4.9 1.2-7.2-5.2 0-10.4-2-14.1-5.7"/><path fill="#14489E" d="M45.5 50.5c.5-1.3 1.5-2.8 1.4-4.2-.2-1.7-2-1.8-3.4-2.1-1.6-.4-1.6-1-1.8-2.4-.3-1.7-1.9-1.9-2.8-.5.2-1.6.4-2.7-1.3-3.5-1-.4-1.5-.4-1.7-1.5-.2-1.1-.1-2.3-.5-3.3-.8-1.9-3.6-1-5.1-.8-2.1.3-4 .6-5.9-.4-2-1-3.6-2.5-5.5-3.7-1.8-1.2-3.8-2.2-5.9-2.8-4-1.2-9.3-1.4-13 .6v3.7c2.9-1.3 6.3-1.7 9.4-1.4 3.3.3 6.2 1.7 8.7 3.7 2.5 1.9 5.2 3.9 8.4 4.1 1.5.1 2.9-.3 4.4-.6 1.2-.3 1.8-.2 2.1 1.1.3 1.6-.3 3.7 1.7 4.3 1.3.4 1.9.1 2.1 1.5.1.5 0 1.2.4 1.6.7.8 1.3-.3 2-.2 1 .2.3 1.8.6 2.5.6 1.3 2.4.6 3 1.6.4.6-.6 2-.8 2.6-.4 1-.9 2-1.3 3.1-2.6 7.1-4.6 15.9-2.1 23.2H42c-1.4-4.1-1.1-8.9-.4-13.1.7-4.6 2.3-8.9 3.9-13.1z"/></svg>
